<svg width="74" height="20" viewBox="0 0 74 20" fill="none" xmlns="http://www.w3.org/2000/svg">
<path d="M5.76073 19.7312L0 0.268817H5.73368L8.49234 12.4462H8.65462L11.8731 0.268817H16.4167L19.6622 12.5H19.8245L22.5831 0.268817H28.3168L22.5561 19.7312H17.6067L14.226 8.60215H14.0638L10.683 19.7312H5.76073Z" fill="url(#paint0_linear_19_477)"/>
<path d="M35.4028 20C30.7239 20 27.8706 17.1909 27.8571 12.4731C27.8706 7.95699 30.7645 4.94624 35.2946 4.94624C39.649 4.94624 42.5293 7.72849 42.5429 12.4194V13.629H32.9146V13.8172C32.9146 15.336 33.8747 16.3978 35.511 16.3978C36.6334 16.3978 37.5124 15.9274 37.8369 15.0806H42.5158C42.0155 18.0914 39.4191 20 35.4028 20ZM32.9146 10.7796H37.8099C37.7963 9.46237 36.7686 8.53495 35.4028 8.54839C34.037 8.53495 32.9552 9.46237 32.9146 10.7796Z" fill="url(#paint1_linear_19_477)"/>
<path d="M54.1455 0.268817V19.7312H48.9797V5H48.8715L44.5442 7.58065V3.19892L49.3854 0.268817H54.1455Z" fill="url(#paint2_linear_19_477)"/>
<path d="M65.8021 20C61.2179 20 57.9454 17.4597 57.9048 13.871H63.0976C63.1381 15.0269 64.2605 15.8602 65.8292 15.8602C67.3843 15.8602 68.4526 14.9866 68.4526 13.7366C68.4526 12.5 67.222 11.6263 65.4235 11.6129H63.4492V8.06452H65.4235C67.0598 8.06452 68.1957 7.19086 68.1822 5.96774C68.1957 4.78495 67.2356 3.95161 65.8562 3.95161C64.3552 3.95161 63.2598 4.81183 63.2328 6.02151H58.3105C58.324 2.48656 61.4613 0 65.8562 0C70.1565 0 73.1721 2.39247 73.1586 5.64516C73.1721 7.82258 71.4953 9.31452 69.1829 9.56989V9.73118C72.2931 10.0806 73.9023 11.7742 73.8888 14.1667C73.9023 17.5806 70.5487 20 65.8021 20Z" fill="url(#paint3_linear_19_477)"/>
<defs>
<linearGradient id="paint0_linear_19_477" x1="80.409" y1="-6.41936" x2="-0.315024" y2="27.2354" gradientUnits="userSpaceOnUse">
<stop stop-color="#5FFBF1"/>
<stop offset="0.5" stop-color="#86A8E7"/>
<stop offset="1" stop-color="#D16BA5"/>
</linearGradient>
<linearGradient id="paint1_linear_19_477" x1="80.409" y1="-6.41936" x2="-0.315024" y2="27.2354" gradientUnits="userSpaceOnUse">
<stop stop-color="#5FFBF1"/>
<stop offset="0.5" stop-color="#86A8E7"/>
<stop offset="1" stop-color="#D16BA5"/>
</linearGradient>
<linearGradient id="paint2_linear_19_477" x1="80.409" y1="-6.41936" x2="-0.315024" y2="27.2354" gradientUnits="userSpaceOnUse">
<stop stop-color="#5FFBF1"/>
<stop offset="0.5" stop-color="#86A8E7"/>
<stop offset="1" stop-color="#D16BA5"/>
</linearGradient>
<linearGradient id="paint3_linear_19_477" x1="80.409" y1="-6.41936" x2="-0.315024" y2="27.2354" gradientUnits="userSpaceOnUse">
<stop stop-color="#5FFBF1"/>
<stop offset="0.5" stop-color="#86A8E7"/>
<stop offset="1" stop-color="#D16BA5"/>
</linearGradient>
</defs>
</svg>
